# MagicaVoxel @ Ephtracy

# group
o 

# material
mtllib cactus.mtl
usemtl palette

# normals
vn -1 0 0
vn 1 0 0
vn 0 0 1
vn 0 0 -1
vn 0 -1 0
vn 0 1 0

# texcoords
vt 0.00195313 0.5
vt 0.0292969 0.5
vt 0.0449219 0.5
vt 0.0605469 0.5

# verts
v -0.8 0.8 0
v -0.8 0.8 -0.1
v -0.8 0.9 0
v -0.8 0.9 -0.1
v -0.8 1 0
v -0.8 1 -0.1
v -0.8 1.1 0
v -0.8 1.1 -0.1
v -0.8 1.2 0
v -0.8 1.2 -0.1
v -0.8 1.3 0
v -0.8 1.3 -0.1
v -0.4 0 0
v -0.4 0 -0.1
v -0.4 0.3 -0.1
v -0.4 0.3 -0.2
v -0.4 0.4 -0.1
v -0.4 0.4 -0.2
v -0.4 0.8 0
v -0.4 0.8 -0.1
v -0.4 1.3 0
v -0.4 1.3 -0.1
v -0.4 1.5 0
v -0.4 1.5 -0.1
v -0.3 0 0.2
v -0.3 0 0
v -0.3 0 -0.1
v -0.3 0 -0.3
v -0.3 0.3 -0.1
v -0.3 0.3 -0.2
v -0.3 0.4 -0.1
v -0.3 0.4 -0.2
v -0.3 0.5 0.3
v -0.3 0.5 0.2
v -0.3 0.6 0.3
v -0.3 0.6 0.2
v -0.3 0.8 0
v -0.3 0.8 -0.1
v -0.3 0.9 0
v -0.3 0.9 -0.1
v -0.3 1 0
v -0.3 1 -0.1
v -0.3 1.1 0
v -0.3 1.1 -0.1
v -0.3 1.2 0
v -0.3 1.2 -0.1
v -0.3 1.3 0
v -0.3 1.3 -0.1
v -0.3 1.5 0.2
v -0.3 1.5 0.1
v -0.3 1.5 0
v -0.3 1.5 -0.1
v -0.3 1.5 -0.2
v -0.3 1.5 -0.3
v -0.3 1.6 0.1
v -0.3 1.6 -0.2
v -0.2 0 0.3
v -0.2 0 0.2
v -0.2 0 -0.3
v -0.2 0 -0.4
v -0.2 0.3 0.5
v -0.2 0.3 0.3
v -0.2 0.5 0.6
v -0.2 0.5 0.5
v -0.2 0.5 0.3
v -0.2 0.5 0.2
v -0.2 0.6 0.4
v -0.2 0.6 0.3
v -0.2 0.6 0.2
v -0.2 0.6 -0.4
v -0.2 0.6 -0.5
v -0.2 0.7 -0.4
v -0.2 0.7 -0.5
v -0.2 0.8 0.6
v -0.2 0.8 0.4
v -0.2 1.5 0.3
v -0.2 1.5 0.2
v -0.2 1.5 0.1
v -0.2 1.5 -0.2
v -0.2 1.5 -0.3
v -0.2 1.5 -0.4
v -0.2 1.6 0.2
v -0.2 1.6 0.1
v -0.2 1.6 -0.2
v -0.2 1.6 -0.3
v -0.1 0.1 -0.4
v -0.1 0.1 -0.5
v -0.1 0.2 -0.4
v -0.1 0.2 -0.5
v -0.1 0.7 0.7
v -0.1 0.7 0.6
v -0.1 0.8 0.7
v -0.1 0.8 0.6
v -0.1 1.5 -0.3
v -0.1 1.5 -0.4
v -0.1 1.6 -0.3
v -0.1 1.6 -0.4
v 0 0 0
v 0 0 -0.1
v 0 1.3 0.4
v 0 1.3 0.3
v 0 1.4 0.4
v 0 1.4 0.3
v 0 1.6 0
v 0 1.6 -0.1
v 0.4 0.9 0.2
v 0.4 0.9 0.1
v 0.4 0.9 -0.2
v 0.4 0.9 -0.3
v 0.4 1 0.2
v 0.4 1 0.1
v 0.4 1 -0.2
v 0.4 1 -0.3
v 0.6 1.1 0.1
v 0.6 1.1 -0.2
v 0.6 1.3 0.1
v 0.6 1.3 -0.2
v -0.1 0 0
v -0.1 0 -0.1
v -0.1 0.6 -0.4
v -0.1 0.6 -0.5
v -0.1 0.7 -0.4
v -0.1 0.7 -0.5
v -0.1 1.6 0
v -0.1 1.6 -0.1
v 0 0.1 -0.4
v 0 0.1 -0.5
v 0 0.2 -0.4
v 0 0.2 -0.5
v 0 0.7 0.7
v 0 0.7 0.6
v 0 0.8 0.7
v 0 0.8 0.6
v 0 1.5 -0.3
v 0 1.5 -0.4
v 0 1.6 -0.3
v 0 1.6 -0.4
v 0.1 0 0.3
v 0.1 0 0.2
v 0.1 0 -0.3
v 0.1 0 -0.4
v 0.1 0.3 0.5
v 0.1 0.3 0.3
v 0.1 0.5 0.6
v 0.1 0.5 0.5
v 0.1 0.6 0.4
v 0.1 0.6 0.3
v 0.1 0.8 0.6
v 0.1 0.8 0.4
v 0.1 1 -0.3
v 0.1 1 -0.4
v 0.1 1.1 -0.3
v 0.1 1.1 -0.4
v 0.1 1.3 0.4
v 0.1 1.3 0.3
v 0.1 1.4 0.4
v 0.1 1.4 0.3
v 0.1 1.5 0.3
v 0.1 1.5 0.2
v 0.1 1.5 0.1
v 0.1 1.5 -0.2
v 0.1 1.5 -0.3
v 0.1 1.5 -0.4
v 0.1 1.6 0.2
v 0.1 1.6 0.1
v 0.1 1.6 -0.2
v 0.1 1.6 -0.3
v 0.2 0 0.2
v 0.2 0 0.1
v 0.2 0 -0.2
v 0.2 0 -0.3
v 0.2 1 -0.3
v 0.2 1 -0.4
v 0.2 1.1 -0.3
v 0.2 1.1 -0.4
v 0.2 1.5 0.2
v 0.2 1.5 0.1
v 0.2 1.5 -0.2
v 0.2 1.5 -0.3
v 0.2 1.6 0.1
v 0.2 1.6 -0.2
v 0.3 0 0.1
v 0.3 0 -0.2
v 0.3 0.2 0.1
v 0.3 0.2 0
v 0.3 0.3 0.1
v 0.3 0.3 0
v 0.3 0.8 0.1
v 0.3 0.8 -0.2
v 0.3 1.1 0.1
v 0.3 1.1 -0.2
v 0.3 1.5 0.1
v 0.3 1.5 -0.2
v 0.4 0.2 0.1
v 0.4 0.2 0
v 0.4 0.3 0.1
v 0.4 0.3 0
v 0.5 0.9 0.2
v 0.5 0.9 0.1
v 0.5 0.9 -0.2
v 0.5 0.9 -0.3
v 0.5 1 0.2
v 0.5 1 0.1
v 0.5 1 -0.2
v 0.5 1 -0.3
v 0.6 0.8 0.1
v 0.6 0.8 -0.2
v 0.6 0.9 0.1
v 0.6 0.9 -0.2
v 0.7 0.9 0.1
v 0.7 0.9 -0.2
v 0.7 1 0.1
v 0.7 1 0
v 0.7 1 -0.1
v 0.7 1.1 0.1
v 0.7 1.1 0
v 0.7 1.3 0.1
v 0.7 1.3 0
v 0.7 1.3 -0.1
v 0.7 1.3 -0.2
v 0.8 1 0.1
v 0.8 1 0
v 0.8 1 -0.1
v 0.8 1.1 0.1
v 0.8 1.1 0
v 0.8 1.3 0
v 0.8 1.3 -0.1
v -0.1 0.7 0.7
v -0.1 0.8 0.7
v 0 0.7 0.7
v 0 0.8 0.7
v -0.2 0.5 0.6
v -0.2 0.8 0.6
v -0.1 0.7 0.6
v -0.1 0.8 0.6
v 0 0.7 0.6
v 0 0.8 0.6
v 0.1 0.5 0.6
v 0.1 0.8 0.6
v -0.2 0.3 0.5
v -0.2 0.5 0.5
v 0.1 0.3 0.5
v 0.1 0.5 0.5
v 0 1.3 0.4
v 0 1.4 0.4
v 0.1 1.3 0.4
v 0.1 1.4 0.4
v -0.3 0.5 0.3
v -0.3 0.6 0.3
v -0.2 0 0.3
v -0.2 0.3 0.3
v -0.2 0.5 0.3
v -0.2 0.6 0.3
v -0.2 1.5 0.3
v 0 1.3 0.3
v 0 1.4 0.3
v 0.1 0 0.3
v 0.1 0.3 0.3
v 0.1 0.6 0.3
v 0.1 1.3 0.3
v 0.1 1.4 0.3
v 0.1 1.5 0.3
v -0.3 0 0.2
v -0.3 0.5 0.2
v -0.3 0.6 0.2
v -0.3 1.5 0.2
v -0.2 0 0.2
v -0.2 0.5 0.2
v -0.2 0.6 0.2
v -0.2 1.5 0.2
v -0.2 1.6 0.2
v 0.1 0 0.2
v 0.1 1.5 0.2
v 0.1 1.6 0.2
v 0.2 0 0.2
v 0.2 1.5 0.2
v 0.4 0.9 0.2
v 0.4 1 0.2
v 0.5 0.9 0.2
v 0.5 1 0.2
v -0.3 1.5 0.1
v -0.3 1.6 0.1
v -0.2 1.5 0.1
v -0.2 1.6 0.1
v 0.1 1.5 0.1
v 0.1 1.6 0.1
v 0.2 0 0.1
v 0.2 1.5 0.1
v 0.2 1.6 0.1
v 0.3 0 0.1
v 0.3 0.2 0.1
v 0.3 0.3 0.1
v 0.3 0.8 0.1
v 0.3 1.1 0.1
v 0.3 1.5 0.1
v 0.4 0.2 0.1
v 0.4 0.3 0.1
v 0.4 0.9 0.1
v 0.4 1 0.1
v 0.5 0.9 0.1
v 0.5 1 0.1
v 0.6 0.8 0.1
v 0.6 0.9 0.1
v 0.6 1.1 0.1
v 0.6 1.3 0.1
v 0.7 0.9 0.1
v 0.7 1 0.1
v 0.7 1.1 0.1
v 0.7 1.3 0.1
v 0.8 1 0.1
v 0.8 1.1 0.1
v -0.8 0.8 0
v -0.8 0.9 0
v -0.8 1 0
v -0.8 1.1 0
v -0.8 1.2 0
v -0.8 1.3 0
v -0.7 0.8 0
v -0.7 0.9 0
v -0.7 1 0
v -0.7 1.1 0
v -0.7 1.2 0
v -0.7 1.3 0
v -0.6 0.8 0
v -0.6 0.9 0
v -0.6 1 0
v -0.6 1.1 0
v -0.6 1.2 0
v -0.6 1.3 0
v -0.5 0.8 0
v -0.5 0.9 0
v -0.5 1 0
v -0.5 1.1 0
v -0.5 1.2 0
v -0.5 1.3 0
v -0.4 0 0
v -0.4 0.8 0
v -0.4 0.9 0
v -0.4 1 0
v -0.4 1.1 0
v -0.4 1.2 0
v -0.4 1.3 0
v -0.4 1.5 0
v -0.3 0 0
v -0.3 0.8 0
v -0.3 0.9 0
v -0.3 1 0
v -0.3 1.1 0
v -0.3 1.2 0
v -0.3 1.3 0
v -0.3 1.5 0
v 0.7 1.1 0
v 0.7 1.3 0
v 0.8 1.1 0
v 0.8 1.3 0
v -0.1 0 -0.1
v -0.1 1.6 -0.1
v 0 0 -0.1
v 0 1.6 -0.1
v -0.2 0.6 0.4
v -0.2 0.8 0.4
v 0.1 0.6 0.4
v 0.1 0.8 0.4
v -0.1 0 0
v -0.1 1.6 0
v 0 0 0
v 0 1.6 0
v 0.3 0.2 0
v 0.3 0.3 0
v 0.4 0.2 0
v 0.4 0.3 0
v -0.8 0.8 -0.1
v -0.8 0.9 -0.1
v -0.8 1 -0.1
v -0.8 1.1 -0.1
v -0.8 1.2 -0.1
v -0.8 1.3 -0.1
v -0.7 0.8 -0.1
v -0.7 0.9 -0.1
v -0.7 1 -0.1
v -0.7 1.1 -0.1
v -0.7 1.2 -0.1
v -0.7 1.3 -0.1
v -0.6 0.8 -0.1
v -0.6 0.9 -0.1
v -0.6 1 -0.1
v -0.6 1.1 -0.1
v -0.6 1.2 -0.1
v -0.6 1.3 -0.1
v -0.5 0.8 -0.1
v -0.5 0.9 -0.1
v -0.5 1 -0.1
v -0.5 1.1 -0.1
v -0.5 1.2 -0.1
v -0.5 1.3 -0.1
v -0.4 0 -0.1
v -0.4 0.3 -0.1
v -0.4 0.4 -0.1
v -0.4 0.8 -0.1
v -0.4 0.9 -0.1
v -0.4 1 -0.1
v -0.4 1.1 -0.1
v -0.4 1.2 -0.1
v -0.4 1.3 -0.1
v -0.4 1.5 -0.1
v -0.3 0 -0.1
v -0.3 0.3 -0.1
v -0.3 0.4 -0.1
v -0.3 0.8 -0.1
v -0.3 0.9 -0.1
v -0.3 1 -0.1
v -0.3 1.1 -0.1
v -0.3 1.2 -0.1
v -0.3 1.3 -0.1
v -0.3 1.5 -0.1
v 0.7 1 -0.1
v 0.7 1.3 -0.1
v 0.8 1 -0.1
v 0.8 1.3 -0.1
v -0.4 0.3 -0.2
v -0.4 0.4 -0.2
v -0.3 0.3 -0.2
v -0.3 0.4 -0.2
v -0.3 1.5 -0.2
v -0.3 1.6 -0.2
v -0.2 1.5 -0.2
v -0.2 1.6 -0.2
v 0.1 1.5 -0.2
v 0.1 1.6 -0.2
v 0.2 0 -0.2
v 0.2 1.5 -0.2
v 0.2 1.6 -0.2
v 0.3 0 -0.2
v 0.3 0.8 -0.2
v 0.3 1.1 -0.2
v 0.3 1.5 -0.2
v 0.4 0.9 -0.2
v 0.4 1 -0.2
v 0.5 0.9 -0.2
v 0.5 1 -0.2
v 0.6 0.8 -0.2
v 0.6 0.9 -0.2
v 0.6 1.1 -0.2
v 0.6 1.3 -0.2
v 0.7 0.9 -0.2
v 0.7 1.3 -0.2
v -0.3 0 -0.3
v -0.3 1.5 -0.3
v -0.2 0 -0.3
v -0.2 1.5 -0.3
v -0.2 1.6 -0.3
v -0.1 1.5 -0.3
v -0.1 1.6 -0.3
v 0 1.5 -0.3
v 0 1.6 -0.3
v 0.1 0 -0.3
v 0.1 1 -0.3
v 0.1 1.1 -0.3
v 0.1 1.5 -0.3
v 0.1 1.6 -0.3
v 0.2 0 -0.3
v 0.2 1 -0.3
v 0.2 1.1 -0.3
v 0.2 1.5 -0.3
v 0.4 0.9 -0.3
v 0.4 1 -0.3
v 0.5 0.9 -0.3
v 0.5 1 -0.3
v -0.2 0 -0.4
v -0.2 0.6 -0.4
v -0.2 0.7 -0.4
v -0.2 1.5 -0.4
v -0.1 0.1 -0.4
v -0.1 0.2 -0.4
v -0.1 0.6 -0.4
v -0.1 0.7 -0.4
v -0.1 1.5 -0.4
v -0.1 1.6 -0.4
v 0 0.1 -0.4
v 0 0.2 -0.4
v 0 1.5 -0.4
v 0 1.6 -0.4
v 0.1 0 -0.4
v 0.1 1 -0.4
v 0.1 1.1 -0.4
v 0.1 1.5 -0.4
v 0.2 1 -0.4
v 0.2 1.1 -0.4
v -0.2 0.6 -0.5
v -0.2 0.7 -0.5
v -0.1 0.1 -0.5
v -0.1 0.2 -0.5
v -0.1 0.6 -0.5
v -0.1 0.7 -0.5
v 0 0.1 -0.5
v 0 0.2 -0.5
v -0.2 0 0.3
v 0.1 0 0.3
v -0.3 0 0.2
v -0.2 0 0.2
v 0.1 0 0.2
v 0.2 0 0.2
v 0.2 0 0.1
v 0.3 0 0.1
v -0.4 0 0
v -0.3 0 0
v -0.1 0 0
v 0 0 0
v -0.4 0 -0.1
v -0.3 0 -0.1
v -0.1 0 -0.1
v 0 0 -0.1
v 0.2 0 -0.2
v 0.3 0 -0.2
v -0.3 0 -0.3
v -0.2 0 -0.3
v 0.1 0 -0.3
v 0.2 0 -0.3
v -0.2 0 -0.4
v 0.1 0 -0.4
v -0.1 0.1 -0.4
v 0 0.1 -0.4
v -0.1 0.1 -0.5
v 0 0.1 -0.5
v 0.3 0.2 0.1
v 0.4 0.2 0.1
v 0.3 0.2 0
v 0.4 0.2 0
v -0.2 0.3 0.5
v 0.1 0.3 0.5
v -0.2 0.3 0.3
v 0.1 0.3 0.3
v -0.4 0.3 -0.1
v -0.3 0.3 -0.1
v -0.4 0.3 -0.2
v -0.3 0.3 -0.2
v -0.2 0.5 0.6
v 0.1 0.5 0.6
v -0.2 0.5 0.5
v 0.1 0.5 0.5
v -0.3 0.5 0.3
v -0.2 0.5 0.3
v -0.3 0.5 0.2
v -0.2 0.5 0.2
v -0.2 0.6 -0.4
v -0.1 0.6 -0.4
v -0.2 0.6 -0.5
v -0.1 0.6 -0.5
v -0.1 0.7 0.7
v 0 0.7 0.7
v -0.1 0.7 0.6
v 0 0.7 0.6
v 0.3 0.8 0.1
v 0.6 0.8 0.1
v -0.8 0.8 0
v -0.7 0.8 0
v -0.6 0.8 0
v -0.5 0.8 0
v -0.4 0.8 0
v -0.8 0.8 -0.1
v -0.7 0.8 -0.1
v -0.6 0.8 -0.1
v -0.5 0.8 -0.1
v -0.4 0.8 -0.1
v 0.3 0.8 -0.2
v 0.6 0.8 -0.2
v 0.4 0.9 0.2
v 0.5 0.9 0.2
v 0.4 0.9 0.1
v 0.5 0.9 0.1
v 0.6 0.9 0.1
v 0.7 0.9 0.1
v 0.4 0.9 -0.2
v 0.5 0.9 -0.2
v 0.6 0.9 -0.2
v 0.7 0.9 -0.2
v 0.4 0.9 -0.3
v 0.5 0.9 -0.3
v 0.7 1 0.1
v 0.8 1 0.1
v 0.7 1 0
v 0.8 1 0
v 0.7 1 -0.1
v 0.8 1 -0.1
v 0.1 1 -0.3
v 0.2 1 -0.3
v 0.1 1 -0.4
v 0.2 1 -0.4
v 0 1.3 0.4
v 0.1 1.3 0.4
v 0 1.3 0.3
v 0.1 1.3 0.3
v -0.1 0.2 -0.4
v 0 0.2 -0.4
v -0.1 0.2 -0.5
v 0 0.2 -0.5
v 0.3 0.3 0.1
v 0.4 0.3 0.1
v 0.3 0.3 0
v 0.4 0.3 0
v -0.4 0.4 -0.1
v -0.3 0.4 -0.1
v -0.4 0.4 -0.2
v -0.3 0.4 -0.2
v -0.2 0.6 0.4
v 0.1 0.6 0.4
v -0.3 0.6 0.3
v -0.2 0.6 0.3
v 0.1 0.6 0.3
v -0.3 0.6 0.2
v -0.2 0.6 0.2
v -0.2 0.7 -0.4
v -0.1 0.7 -0.4
v -0.2 0.7 -0.5
v -0.1 0.7 -0.5
v -0.1 0.8 0.7
v 0 0.8 0.7
v -0.2 0.8 0.6
v -0.1 0.8 0.6
v 0 0.8 0.6
v 0.1 0.8 0.6
v -0.2 0.8 0.4
v 0.1 0.8 0.4
v 0.4 1 0.2
v 0.5 1 0.2
v 0.4 1 0.1
v 0.5 1 0.1
v 0.4 1 -0.2
v 0.5 1 -0.2
v 0.4 1 -0.3
v 0.5 1 -0.3
v 0.3 1.1 0.1
v 0.6 1.1 0.1
v 0.7 1.1 0.1
v 0.8 1.1 0.1
v 0.7 1.1 0
v 0.8 1.1 0
v 0.3 1.1 -0.2
v 0.6 1.1 -0.2
v 0.1 1.1 -0.3
v 0.2 1.1 -0.3
v 0.1 1.1 -0.4
v 0.2 1.1 -0.4
v 0.6 1.3 0.1
v 0.7 1.3 0.1
v -0.8 1.3 0
v -0.7 1.3 0
v -0.6 1.3 0
v -0.5 1.3 0
v -0.4 1.3 0
v 0.7 1.3 0
v 0.8 1.3 0
v -0.8 1.3 -0.1
v -0.7 1.3 -0.1
v -0.6 1.3 -0.1
v -0.5 1.3 -0.1
v -0.4 1.3 -0.1
v 0.7 1.3 -0.1
v 0.8 1.3 -0.1
v 0.6 1.3 -0.2
v 0.7 1.3 -0.2
v 0 1.4 0.4
v 0.1 1.4 0.4
v 0 1.4 0.3
v 0.1 1.4 0.3
v -0.2 1.5 0.3
v 0.1 1.5 0.3
v -0.3 1.5 0.2
v -0.2 1.5 0.2
v 0.1 1.5 0.2
v 0.2 1.5 0.2
v -0.3 1.5 0.1
v -0.2 1.5 0.1
v 0.1 1.5 0.1
v 0.2 1.5 0.1
v 0.3 1.5 0.1
v -0.4 1.5 0
v -0.3 1.5 0
v -0.4 1.5 -0.1
v -0.3 1.5 -0.1
v -0.3 1.5 -0.2
v -0.2 1.5 -0.2
v 0.1 1.5 -0.2
v 0.2 1.5 -0.2
v 0.3 1.5 -0.2
v -0.3 1.5 -0.3
v -0.2 1.5 -0.3
v -0.1 1.5 -0.3
v 0 1.5 -0.3
v 0.1 1.5 -0.3
v 0.2 1.5 -0.3
v -0.2 1.5 -0.4
v -0.1 1.5 -0.4
v 0 1.5 -0.4
v 0.1 1.5 -0.4
v -0.2 1.6 0.2
v 0.1 1.6 0.2
v -0.3 1.6 0.1
v -0.2 1.6 0.1
v 0.1 1.6 0.1
v 0.2 1.6 0.1
v -0.1 1.6 0
v 0 1.6 0
v -0.1 1.6 -0.1
v 0 1.6 -0.1
v -0.3 1.6 -0.2
v -0.2 1.6 -0.2
v 0.1 1.6 -0.2
v 0.2 1.6 -0.2
v -0.2 1.6 -0.3
v -0.1 1.6 -0.3
v 0 1.6 -0.3
v 0.1 1.6 -0.3
v -0.1 1.6 -0.4
v 0 1.6 -0.4

# faces
f 3/1/1 2/1/1 1/1/1
f 4/1/1 2/1/1 3/1/1
f 5/2/1 4/2/1 3/2/1
f 6/2/1 4/2/1 5/2/1
f 7/1/1 6/1/1 5/1/1
f 8/1/1 6/1/1 7/1/1
f 9/2/1 8/2/1 7/2/1
f 10/2/1 8/2/1 9/2/1
f 11/1/1 10/1/1 9/1/1
f 12/1/1 10/1/1 11/1/1
f 15/3/1 14/3/1 13/3/1
f 17/3/1 15/3/1 13/3/1
f 17/4/1 16/4/1 15/4/1
f 18/4/1 16/4/1 17/4/1
f 19/3/1 17/3/1 13/3/1
f 20/3/1 17/3/1 19/3/1
f 23/3/1 22/3/1 21/3/1
f 24/3/1 22/3/1 23/3/1
f 29/3/1 28/3/1 27/3/1
f 30/3/1 28/3/1 29/3/1
f 32/3/1 28/3/1 30/3/1
f 34/3/1 26/3/1 25/3/1
f 35/4/1 34/4/1 33/4/1
f 36/3/1 26/3/1 34/3/1
f 36/4/1 34/4/1 35/4/1
f 37/3/1 26/3/1 36/3/1
f 38/3/1 32/3/1 31/3/1
f 39/3/1 37/3/1 36/3/1
f 40/3/1 32/3/1 38/3/1
f 41/3/1 39/3/1 36/3/1
f 42/3/1 32/3/1 40/3/1
f 43/3/1 41/3/1 36/3/1
f 44/3/1 32/3/1 42/3/1
f 45/3/1 43/3/1 36/3/1
f 46/3/1 32/3/1 44/3/1
f 47/3/1 45/3/1 36/3/1
f 48/3/1 32/3/1 46/3/1
f 49/3/1 47/3/1 36/3/1
f 50/3/1 47/3/1 49/3/1
f 51/3/1 47/3/1 50/3/1
f 52/3/1 32/3/1 48/3/1
f 53/3/1 28/3/1 32/3/1
f 53/3/1 32/3/1 52/3/1
f 54/3/1 28/3/1 53/3/1
f 55/3/1 51/3/1 50/3/1
f 55/3/1 52/3/1 51/3/1
f 55/3/1 53/3/1 52/3/1
f 56/3/1 53/3/1 55/3/1
f 62/3/1 58/3/1 57/3/1
f 64/3/1 62/3/1 61/3/1
f 65/3/1 58/3/1 62/3/1
f 65/3/1 62/3/1 64/3/1
f 66/3/1 58/3/1 65/3/1
f 67/3/1 64/3/1 63/3/1
f 67/3/1 65/3/1 64/3/1
f 68/3/1 65/3/1 67/3/1
f 70/3/1 60/3/1 59/3/1
f 72/4/1 71/4/1 70/4/1
f 72/3/1 70/3/1 59/3/1
f 73/4/1 71/4/1 72/4/1
f 74/3/1 67/3/1 63/3/1
f 75/3/1 67/3/1 74/3/1
f 76/3/1 69/3/1 68/3/1
f 77/3/1 69/3/1 76/3/1
f 80/3/1 72/3/1 59/3/1
f 81/3/1 72/3/1 80/3/1
f 82/3/1 78/3/1 77/3/1
f 83/3/1 78/3/1 82/3/1
f 84/3/1 80/3/1 79/3/1
f 85/3/1 80/3/1 84/3/1
f 88/4/1 87/4/1 86/4/1
f 89/4/1 87/4/1 88/4/1
f 92/4/1 91/4/1 90/4/1
f 93/4/1 91/4/1 92/4/1
f 96/4/1 95/4/1 94/4/1
f 97/4/1 95/4/1 96/4/1
f 102/4/1 101/4/1 100/4/1
f 103/4/1 101/4/1 102/4/1
f 104/3/1 99/3/1 98/3/1
f 105/3/1 99/3/1 104/3/1
f 110/4/1 107/4/1 106/4/1
f 111/4/1 107/4/1 110/4/1
f 112/4/1 109/4/1 108/4/1
f 113/4/1 109/4/1 112/4/1
f 116/3/1 115/3/1 114/3/1
f 117/3/1 115/3/1 116/3/1
f 120/4/2 121/4/2 122/4/2
f 122/4/2 121/4/2 123/4/2
f 118/3/2 119/3/2 124/3/2
f 124/3/2 119/3/2 125/3/2
f 126/4/2 127/4/2 128/4/2
f 128/4/2 127/4/2 129/4/2
f 130/4/2 131/4/2 132/4/2
f 132/4/2 131/4/2 133/4/2
f 134/4/2 135/4/2 136/4/2
f 136/4/2 135/4/2 137/4/2
f 138/3/2 139/3/2 143/3/2
f 142/3/2 143/3/2 145/3/2
f 145/3/2 143/3/2 146/3/2
f 144/3/2 145/3/2 146/3/2
f 143/3/2 139/3/2 147/3/2
f 146/3/2 143/3/2 147/3/2
f 144/3/2 146/3/2 148/3/2
f 148/3/2 146/3/2 149/3/2
f 140/3/2 141/3/2 150/3/2
f 150/3/2 141/3/2 151/3/2
f 147/3/2 139/3/2 155/3/2
f 154/4/2 155/4/2 156/4/2
f 155/3/2 139/3/2 157/3/2
f 156/4/2 155/4/2 157/4/2
f 157/3/2 139/3/2 158/3/2
f 158/3/2 139/3/2 159/3/2
f 152/3/2 153/3/2 162/3/2
f 162/3/2 153/3/2 163/3/2
f 159/3/2 160/3/2 164/3/2
f 164/3/2 160/3/2 165/3/2
f 161/3/2 162/3/2 166/3/2
f 166/3/2 162/3/2 167/3/2
f 170/3/2 171/3/2 172/3/2
f 170/3/2 172/3/2 174/3/2
f 172/4/2 173/4/2 174/4/2
f 174/4/2 173/4/2 175/4/2
f 168/3/2 169/3/2 176/3/2
f 176/3/2 169/3/2 177/3/2
f 170/3/2 174/3/2 178/3/2
f 178/3/2 174/3/2 179/3/2
f 177/3/2 178/3/2 180/3/2
f 180/3/2 178/3/2 181/3/2
f 182/3/2 183/3/2 184/3/2
f 184/3/2 183/3/2 185/3/2
f 185/3/2 183/3/2 187/3/2
f 186/3/2 187/3/2 188/3/2
f 187/3/2 183/3/2 189/3/2
f 188/3/2 187/3/2 189/3/2
f 190/3/2 191/3/2 192/3/2
f 192/3/2 191/3/2 193/3/2
f 194/4/2 195/4/2 196/4/2
f 196/4/2 195/4/2 197/4/2
f 198/4/2 199/4/2 202/4/2
f 202/4/2 199/4/2 203/4/2
f 200/4/2 201/4/2 204/4/2
f 204/4/2 201/4/2 205/4/2
f 206/3/2 207/3/2 208/3/2
f 208/3/2 207/3/2 209/3/2
f 210/3/2 211/3/2 212/3/2
f 212/3/2 211/3/2 213/3/2
f 213/3/2 211/3/2 214/3/2
f 215/3/2 216/3/2 217/3/2
f 217/3/2 216/3/2 218/3/2
f 214/3/2 211/3/2 219/3/2
f 219/3/2 211/3/2 220/3/2
f 221/4/2 222/4/2 224/4/2
f 222/3/2 223/3/2 225/3/2
f 224/4/2 222/4/2 225/4/2
f 225/3/2 223/3/2 226/3/2
f 226/3/2 223/3/2 227/3/2
f 230/4/3 229/4/3 228/4/3
f 231/4/3 229/4/3 230/4/3
f 234/3/3 233/3/3 232/3/3
f 235/3/3 233/3/3 234/3/3
f 236/3/3 234/3/3 232/3/3
f 238/3/3 236/3/3 232/3/3
f 238/3/3 237/3/3 236/3/3
f 239/3/3 237/3/3 238/3/3
f 242/3/3 241/3/3 240/3/3
f 243/3/3 241/3/3 242/3/3
f 246/4/3 245/4/3 244/4/3
f 247/4/3 245/4/3 246/4/3
f 252/4/3 249/4/3 248/4/3
f 253/4/3 249/4/3 252/4/3
f 255/3/3 254/3/3 253/3/3
f 256/3/3 254/3/3 255/3/3
f 257/3/3 251/3/3 250/3/3
f 258/3/3 251/3/3 257/3/3
f 259/3/3 255/3/3 253/3/3
f 260/3/3 255/3/3 259/3/3
f 261/3/3 254/3/3 256/3/3
f 262/3/3 254/3/3 261/3/3
f 267/3/3 264/3/3 263/3/3
f 268/3/3 264/3/3 267/3/3
f 269/3/3 266/3/3 265/3/3
f 270/3/3 266/3/3 269/3/3
f 273/3/3 271/3/3 270/3/3
f 274/3/3 271/3/3 273/3/3
f 275/3/3 273/3/3 272/3/3
f 276/3/3 273/3/3 275/3/3
f 279/4/3 278/4/3 277/4/3
f 280/4/3 278/4/3 279/4/3
f 283/3/3 282/3/3 281/3/3
f 284/3/3 282/3/3 283/3/3
f 288/3/3 286/3/3 285/3/3
f 289/3/3 286/3/3 288/3/3
f 290/3/3 288/3/3 287/3/3
f 291/3/3 288/3/3 290/3/3
f 292/3/3 288/3/3 291/3/3
f 293/3/3 288/3/3 292/3/3
f 294/3/3 288/3/3 293/3/3
f 295/3/3 288/3/3 294/3/3
f 296/4/3 292/4/3 291/4/3
f 297/4/3 292/4/3 296/4/3
f 298/3/3 294/3/3 293/3/3
f 299/3/3 294/3/3 298/3/3
f 300/3/3 298/3/3 293/3/3
f 301/3/3 294/3/3 299/3/3
f 302/3/3 300/3/3 293/3/3
f 302/3/3 301/3/3 300/3/3
f 303/3/3 301/3/3 302/3/3
f 304/3/3 294/3/3 301/3/3
f 304/3/3 301/3/3 303/3/3
f 306/3/3 305/3/3 304/3/3
f 306/3/3 304/3/3 303/3/3
f 307/3/3 305/3/3 306/3/3
f 308/3/3 305/3/3 307/3/3
f 309/3/3 305/3/3 308/3/3
f 310/4/3 308/4/3 307/4/3
f 311/4/3 308/4/3 310/4/3
f 318/1/3 313/1/3 312/1/3
f 319/2/3 314/2/3 313/2/3
f 319/1/3 313/1/3 318/1/3
f 320/1/3 315/1/3 314/1/3
f 320/2/3 314/2/3 319/2/3
f 321/2/3 316/2/3 315/2/3
f 321/1/3 315/1/3 320/1/3
f 322/1/3 317/1/3 316/1/3
f 322/2/3 316/2/3 321/2/3
f 323/1/3 317/1/3 322/1/3
f 324/2/3 319/2/3 318/2/3
f 325/1/3 320/1/3 319/1/3
f 325/2/3 319/2/3 324/2/3
f 326/2/3 321/2/3 320/2/3
f 326/1/3 320/1/3 325/1/3
f 327/1/3 322/1/3 321/1/3
f 327/2/3 321/2/3 326/2/3
f 328/2/3 323/2/3 322/2/3
f 328/1/3 322/1/3 327/1/3
f 329/2/3 323/2/3 328/2/3
f 330/1/3 325/1/3 324/1/3
f 331/2/3 326/2/3 325/2/3
f 331/1/3 325/1/3 330/1/3
f 332/1/3 327/1/3 326/1/3
f 332/2/3 326/2/3 331/2/3
f 333/2/3 328/2/3 327/2/3
f 333/1/3 327/1/3 332/1/3
f 334/1/3 329/1/3 328/1/3
f 334/2/3 328/2/3 333/2/3
f 335/1/3 329/1/3 334/1/3
f 337/2/3 331/2/3 330/2/3
f 338/1/3 332/1/3 331/1/3
f 338/2/3 331/2/3 337/2/3
f 339/2/3 333/2/3 332/2/3
f 339/1/3 332/1/3 338/1/3
f 340/1/3 334/1/3 333/1/3
f 340/2/3 333/2/3 339/2/3
f 341/2/3 335/2/3 334/2/3
f 341/1/3 334/1/3 340/1/3
f 342/2/3 335/2/3 341/2/3
f 344/3/3 337/3/3 336/3/3
f 345/1/3 338/1/3 337/1/3
f 345/3/3 337/3/3 344/3/3
f 346/2/3 339/2/3 338/2/3
f 346/1/3 338/1/3 345/1/3
f 347/1/3 340/1/3 339/1/3
f 347/2/3 339/2/3 346/2/3
f 348/2/3 341/2/3 340/2/3
f 348/1/3 340/1/3 347/1/3
f 349/1/3 342/1/3 341/1/3
f 349/2/3 341/2/3 348/2/3
f 350/3/3 343/3/3 342/3/3
f 350/1/3 342/1/3 349/1/3
f 351/3/3 343/3/3 350/3/3
f 354/3/3 353/3/3 352/3/3
f 355/3/3 353/3/3 354/3/3
f 358/3/3 357/3/3 356/3/3
f 359/3/3 357/3/3 358/3/3
f 360/3/4 361/3/4 362/3/4
f 362/3/4 361/3/4 363/3/4
f 364/3/4 365/3/4 366/3/4
f 366/3/4 365/3/4 367/3/4
f 368/4/4 369/4/4 370/4/4
f 370/4/4 369/4/4 371/4/4
f 372/1/4 373/1/4 378/1/4
f 373/2/4 374/2/4 379/2/4
f 378/1/4 373/1/4 379/1/4
f 374/1/4 375/1/4 380/1/4
f 379/2/4 374/2/4 380/2/4
f 375/2/4 376/2/4 381/2/4
f 380/1/4 375/1/4 381/1/4
f 376/1/4 377/1/4 382/1/4
f 381/2/4 376/2/4 382/2/4
f 382/1/4 377/1/4 383/1/4
f 378/2/4 379/2/4 384/2/4
f 379/1/4 380/1/4 385/1/4
f 384/2/4 379/2/4 385/2/4
f 380/2/4 381/2/4 386/2/4
f 385/1/4 380/1/4 386/1/4
f 381/1/4 382/1/4 387/1/4
f 386/2/4 381/2/4 387/2/4
f 382/2/4 383/2/4 388/2/4
f 387/1/4 382/1/4 388/1/4
f 388/2/4 383/2/4 389/2/4
f 384/1/4 385/1/4 390/1/4
f 385/2/4 386/2/4 391/2/4
f 390/1/4 385/1/4 391/1/4
f 386/1/4 387/1/4 392/1/4
f 391/2/4 386/2/4 392/2/4
f 387/2/4 388/2/4 393/2/4
f 392/1/4 387/1/4 393/1/4
f 388/1/4 389/1/4 394/1/4
f 393/2/4 388/2/4 394/2/4
f 394/1/4 389/1/4 395/1/4
f 390/2/4 391/2/4 399/2/4
f 391/1/4 392/1/4 400/1/4
f 399/2/4 391/2/4 400/2/4
f 392/2/4 393/2/4 401/2/4
f 400/1/4 392/1/4 401/1/4
f 393/1/4 394/1/4 402/1/4
f 401/2/4 393/2/4 402/2/4
f 394/2/4 395/2/4 403/2/4
f 402/1/4 394/1/4 403/1/4
f 403/2/4 395/2/4 404/2/4
f 396/3/4 397/3/4 406/3/4
f 406/3/4 397/3/4 407/3/4
f 398/3/4 399/3/4 408/3/4
f 399/1/4 400/1/4 409/1/4
f 408/3/4 399/3/4 409/3/4
f 400/2/4 401/2/4 410/2/4
f 409/1/4 400/1/4 410/1/4
f 401/1/4 402/1/4 411/1/4
f 410/2/4 401/2/4 411/2/4
f 402/2/4 403/2/4 412/2/4
f 411/1/4 402/1/4 412/1/4
f 403/1/4 404/1/4 413/1/4
f 412/2/4 403/2/4 413/2/4
f 404/3/4 405/3/4 414/3/4
f 413/1/4 404/1/4 414/1/4
f 414/3/4 405/3/4 415/3/4
f 416/3/4 417/3/4 418/3/4
f 418/3/4 417/3/4 419/3/4
f 420/4/4 421/4/4 422/4/4
f 422/4/4 421/4/4 423/4/4
f 424/3/4 425/3/4 426/3/4
f 426/3/4 425/3/4 427/3/4
f 428/3/4 429/3/4 431/3/4
f 431/3/4 429/3/4 432/3/4
f 430/3/4 431/3/4 433/3/4
f 433/3/4 431/3/4 434/3/4
f 434/3/4 431/3/4 435/3/4
f 435/3/4 431/3/4 436/3/4
f 434/3/4 435/3/4 437/3/4
f 437/3/4 435/3/4 438/3/4
f 434/3/4 437/3/4 439/3/4
f 438/3/4 435/3/4 440/3/4
f 434/3/4 439/3/4 441/3/4
f 439/3/4 440/3/4 441/3/4
f 441/3/4 440/3/4 442/3/4
f 440/3/4 435/3/4 443/3/4
f 442/3/4 440/3/4 443/3/4
f 443/3/4 444/3/4 445/3/4
f 442/3/4 443/3/4 445/3/4
f 445/3/4 444/3/4 446/3/4
f 447/3/4 448/3/4 449/3/4
f 449/3/4 448/3/4 450/3/4
f 450/3/4 451/3/4 452/3/4
f 452/3/4 451/3/4 453/3/4
f 454/3/4 455/3/4 459/3/4
f 459/3/4 455/3/4 460/3/4
f 456/3/4 457/3/4 461/3/4
f 461/3/4 457/3/4 462/3/4
f 458/3/4 459/3/4 463/3/4
f 463/3/4 459/3/4 464/3/4
f 465/4/4 466/4/4 467/4/4
f 467/4/4 466/4/4 468/4/4
f 469/3/4 470/3/4 473/3/4
f 473/3/4 470/3/4 474/3/4
f 474/3/4 470/3/4 475/3/4
f 471/3/4 472/3/4 476/3/4
f 476/3/4 472/3/4 477/3/4
f 469/3/4 473/3/4 479/3/4
f 474/3/4 475/3/4 480/3/4
f 476/3/4 477/3/4 480/3/4
f 475/3/4 476/3/4 480/3/4
f 477/4/4 478/4/4 481/4/4
f 480/3/4 477/3/4 481/3/4
f 481/4/4 478/4/4 482/4/4
f 469/3/4 479/3/4 483/3/4
f 479/3/4 480/3/4 483/3/4
f 480/3/4 481/3/4 483/3/4
f 483/3/4 481/3/4 484/3/4
f 484/3/4 481/3/4 485/3/4
f 485/3/4 481/3/4 486/3/4
f 484/4/4 485/4/4 487/4/4
f 487/4/4 485/4/4 488/4/4
f 489/4/4 490/4/4 493/4/4
f 493/4/4 490/4/4 494/4/4
f 491/4/4 492/4/4 495/4/4
f 495/4/4 492/4/4 496/4/4
f 500/3/5 498/3/5 497/3/5
f 501/3/5 498/3/5 500/3/5
f 503/3/5 500/3/5 499/3/5
f 503/3/5 502/3/5 501/3/5
f 503/3/5 501/3/5 500/3/5
f 506/3/5 503/3/5 499/3/5
f 506/3/5 504/3/5 503/3/5
f 507/3/5 504/3/5 506/3/5
f 508/3/5 504/3/5 507/3/5
f 509/3/5 506/3/5 505/3/5
f 509/3/5 507/3/5 506/3/5
f 510/3/5 507/3/5 509/3/5
f 511/3/5 507/3/5 510/3/5
f 512/3/5 504/3/5 508/3/5
f 513/3/5 511/3/5 510/3/5
f 513/3/5 512/3/5 511/3/5
f 513/3/5 504/3/5 512/3/5
f 514/3/5 504/3/5 513/3/5
f 515/3/5 513/3/5 510/3/5
f 516/3/5 513/3/5 515/3/5
f 517/3/5 513/3/5 516/3/5
f 518/3/5 513/3/5 517/3/5
f 519/3/5 517/3/5 516/3/5
f 520/3/5 517/3/5 519/3/5
f 523/4/5 522/4/5 521/4/5
f 524/4/5 522/4/5 523/4/5
f 527/4/5 526/4/5 525/4/5
f 528/4/5 526/4/5 527/4/5
f 531/3/5 530/3/5 529/3/5
f 532/3/5 530/3/5 531/3/5
f 535/4/5 534/4/5 533/4/5
f 536/4/5 534/4/5 535/4/5
f 539/3/5 538/3/5 537/3/5
f 540/3/5 538/3/5 539/3/5
f 543/4/5 542/4/5 541/4/5
f 544/4/5 542/4/5 543/4/5
f 547/4/5 546/4/5 545/4/5
f 548/4/5 546/4/5 547/4/5
f 551/4/5 550/4/5 549/4/5
f 552/4/5 550/4/5 551/4/5
f 560/1/5 556/1/5 555/1/5
f 561/2/5 557/2/5 556/2/5
f 561/1/5 556/1/5 560/1/5
f 562/1/5 558/1/5 557/1/5
f 562/2/5 557/2/5 561/2/5
f 563/2/5 559/2/5 558/2/5
f 563/1/5 558/1/5 562/1/5
f 564/2/5 559/2/5 563/2/5
f 565/3/5 554/3/5 553/3/5
f 566/3/5 554/3/5 565/3/5
f 569/4/5 568/4/5 567/4/5
f 570/4/5 568/4/5 569/4/5
f 575/3/5 572/3/5 571/3/5
f 576/3/5 572/3/5 575/3/5
f 577/4/5 574/4/5 573/4/5
f 578/4/5 574/4/5 577/4/5
f 581/4/5 580/4/5 579/4/5
f 582/4/5 580/4/5 581/4/5
f 583/3/5 582/3/5 581/3/5
f 584/3/5 582/3/5 583/3/5
f 587/4/5 586/4/5 585/4/5
f 588/4/5 586/4/5 587/4/5
f 591/4/5 590/4/5 589/4/5
f 592/4/5 590/4/5 591/4/5
f 593/4/6 594/4/6 595/4/6
f 595/4/6 594/4/6 596/4/6
f 597/4/6 598/4/6 599/4/6
f 599/4/6 598/4/6 600/4/6
f 601/4/6 602/4/6 603/4/6
f 603/4/6 602/4/6 604/4/6
f 605/3/6 606/3/6 608/3/6
f 608/3/6 606/3/6 609/3/6
f 607/4/6 608/4/6 610/4/6
f 610/4/6 608/4/6 611/4/6
f 612/4/6 613/4/6 614/4/6
f 614/4/6 613/4/6 615/4/6
f 616/4/6 617/4/6 619/4/6
f 619/4/6 617/4/6 620/4/6
f 618/3/6 619/3/6 622/3/6
f 620/3/6 621/3/6 622/3/6
f 619/3/6 620/3/6 622/3/6
f 622/3/6 621/3/6 623/3/6
f 624/4/6 625/4/6 626/4/6
f 626/4/6 625/4/6 627/4/6
f 628/4/6 629/4/6 630/4/6
f 630/4/6 629/4/6 631/4/6
f 634/4/6 635/4/6 636/4/6
f 636/4/6 635/4/6 637/4/6
f 632/3/6 633/3/6 638/3/6
f 638/3/6 633/3/6 639/3/6
f 640/4/6 641/4/6 642/4/6
f 642/4/6 641/4/6 643/4/6
f 644/3/6 645/3/6 651/3/6
f 646/1/6 647/1/6 653/1/6
f 647/2/6 648/2/6 654/2/6
f 653/1/6 647/1/6 654/1/6
f 648/1/6 649/1/6 655/1/6
f 654/2/6 648/2/6 655/2/6
f 649/2/6 650/2/6 656/2/6
f 655/1/6 649/1/6 656/1/6
f 656/2/6 650/2/6 657/2/6
f 651/3/6 652/3/6 658/3/6
f 644/3/6 651/3/6 658/3/6
f 658/3/6 652/3/6 659/3/6
f 644/3/6 658/3/6 660/3/6
f 660/3/6 658/3/6 661/3/6
f 662/4/6 663/4/6 664/4/6
f 664/4/6 663/4/6 665/4/6
f 666/3/6 667/3/6 669/3/6
f 669/3/6 667/3/6 670/3/6
f 668/3/6 669/3/6 672/3/6
f 672/3/6 669/3/6 673/3/6
f 670/3/6 671/3/6 674/3/6
f 674/3/6 671/3/6 675/3/6
f 677/3/6 678/3/6 679/3/6
f 679/3/6 678/3/6 680/3/6
f 675/3/6 676/3/6 684/3/6
f 684/3/6 676/3/6 685/3/6
f 681/3/6 682/3/6 686/3/6
f 686/3/6 682/3/6 687/3/6
f 683/3/6 684/3/6 690/3/6
f 690/3/6 684/3/6 691/3/6
f 687/3/6 688/3/6 692/3/6
f 692/3/6 688/3/6 693/3/6
f 689/3/6 690/3/6 694/3/6
f 694/3/6 690/3/6 695/3/6
f 696/3/6 697/3/6 699/3/6
f 699/3/6 697/3/6 700/3/6
f 698/3/6 699/3/6 702/3/6
f 700/3/6 701/3/6 702/3/6
f 699/3/6 700/3/6 702/3/6
f 702/3/6 701/3/6 703/3/6
f 698/3/6 702/3/6 704/3/6
f 703/3/6 701/3/6 705/3/6
f 698/3/6 704/3/6 706/3/6
f 704/3/6 705/3/6 706/3/6
f 706/3/6 705/3/6 707/3/6
f 705/3/6 701/3/6 708/3/6
f 707/3/6 705/3/6 708/3/6
f 708/3/6 701/3/6 709/3/6
f 707/3/6 708/3/6 710/3/6
f 710/3/6 708/3/6 711/3/6
f 711/3/6 708/3/6 712/3/6
f 712/3/6 708/3/6 713/3/6
f 711/4/6 712/4/6 714/4/6
f 714/4/6 712/4/6 715/4/6
